Coordinates
version=1
nRows=14
nColumns=24
inDegrees=yes

Units are S.I. units (second, meters, Newtons, ...)
Angles are in degrees.

endheader
time	pelvis_tilt	pelvis_list	pelvis_rotation	pelvis_tx	pelvis_ty	pelvis_tz	hip_flexion_r	hip_adduction_r	hip_rotation_r	knee_angle_r	ankle_angle_r	subtalar_angle_r	mtp_angle_r	hip_flexion_l	hip_adduction_l	hip_rotation_l	knee_angle_l	ankle_angle_l	subtalar_angle_l	mtp_angle_l	lumbar_extension	lumbar_bending	lumbar_rotation
      0.92350000	      2.73189590	      1.86051988	     -4.43674421	     -0.14599767	      1.01050351	      0.27354151	    -16.00333968	      1.18772670	      2.87454994	     -8.70812562	     12.64627101	    -11.12212568	      6.54598144	     16.38800109	      1.63773049	     -8.78824432	      0.09787661	      0.96648634	     -7.06720442	      1.76457390	     -6.10932509	     -1.17375316	     11.83125678
      0.92766667	      2.73467529	      1.87255502	     -4.46438497	     -0.14006455	      1.00999080	      0.27324141	    -16.04532442	      1.12207160	      2.81288211	     -9.35827172	     12.74679991	    -10.93018823	      6.55444432	     16.29573871	      1.72601748	     -8.46145462	      0.12098230	      0.96357432	     -7.12476386	      1.88602221	     -6.06799225	     -1.20405595	     11.87182409
      0.93183333	      2.77077150	      1.90230572	     -4.49402138	     -0.13410431	      1.00956397	      0.27295257	    -16.10397850	      1.03434749	      2.74422821	    -10.04539608	     12.82546564	    -10.73389749	      6.58348751	     16.16727149	      1.83294268	     -8.12154582	      0.06935858	      0.93241616	     -7.19463101	      2.01377338	     -6.06200481	     -1.25921349	     11.90664891
      0.93600000	      2.79666639	      1.94288427	     -4.50484712	     -0.12813497	      1.00914951	      0.27264921	    -16.13340051	      0.94370448	      2.68112287	    -10.76897904	     12.88395509	    -10.59245936	      6.62341612	     16.07510817	      1.95018999	     -7.76703116	     -0.10145348	      0.87621043	     -7.26111913	      2.11899462	     -6.05503517	     -1.33832045	     11.93238831
      0.94016667	      2.83624289	      1.99223123	     -4.54200701	     -0.12211023	      1.00880358	      0.27234481	    -16.13382886	      0.82533986	      2.55615446	    -11.57654954	     12.91315348	    -10.30013782	      6.70564151	     15.93488630	      2.07749008	     -7.38328449	     -0.26975039	      0.75528269	     -7.42077999	      2.27526044	     -6.03013278	     -1.41260515	     11.95451431
      0.94433333	      2.85045141	      2.05008059	     -4.56404675	     -0.11607073	      1.00845685	      0.27202905	    -16.08766098	      0.70696966	      2.45095293	    -12.42137137	     12.90836207	    -10.07794113	      6.82617121	     15.84469908	      2.21119512	     -6.99020960	     -0.53916830	      0.60377915	     -7.59151575	      2.45954188	     -5.98647091	     -1.50116970	     11.96547347
      0.94850000	      2.90774945	      2.12179657	     -4.58361491	     -0.11001660	      1.00819812	      0.27171376	    -16.06154714	      0.57007359	      2.32496354	    -13.31586845	     12.88299389	     -9.83223264	      6.99278980	     15.70800588	      2.36361757	     -6.59974935	     -0.85485716	      0.41673541	     -7.77566932	      2.66935775	     -5.99323642	     -1.61621543	     11.96630568
      0.95266667	      2.94288023	      2.19763252	     -4.60091346	     -0.10393330	      1.00794126	      0.27138870	    -15.98231275	      0.43022872	      2.19954255	    -14.26676805	     12.81680798	     -9.61316621	      7.19030510	     15.60036621	      2.51726799	     -6.21196940	     -1.22446878	      0.20965941	     -7.96615262	      2.88050709	     -5.96497965	     -1.73441035	     11.96231637
      0.95683333	      2.98194389	      2.26693238	     -4.61072477	     -0.09786287	      1.00772466	      0.27104026	    -15.87970100	      0.29664121	      2.06514450	    -15.26281613	     12.69752281	     -9.36888648	      7.50996821	     15.50531076	      2.66481005	     -5.83525329	     -1.66019107	     -0.06218349	     -8.21320276	      3.17438127	     -5.95375902	     -1.84241119	     11.94332322
      0.96100000	      2.99956443	      2.35188857	     -4.61320748	     -0.09172154	      1.00751302	      0.27070944	    -15.73541383	      0.15539215	      1.95134234	    -16.29033444	     12.44233839	     -9.36137510	     11.86027864	     15.41843636	      2.82685450	     -5.43884184	     -2.09330423	     -0.36732900	     -8.50634256	      6.69155003	     -5.88977720	     -1.98203823	     11.92171703
      0.96516667	      3.08514248	      2.46291982	     -4.64109174	     -0.08558519	      1.00742977	      0.27037631	    -15.60999725	     -0.03957249	      1.77337589	    -17.42046584	     12.26677532	     -9.05767243	     11.90769670	     15.27336229	      3.01032027	     -5.20178250	     -2.58410291	     -0.61237087	     -8.56504333	      6.71290162	     -5.91518781	     -2.15186740	     11.89680368
      0.96933333	      3.12917552	      2.56342695	     -4.64857549	     -0.07944805	      1.00730914	      0.27001266	    -15.40929299	     -0.21401900	      1.59682188	    -18.60606136	     12.03364928	     -8.80577706	     12.00026431	     15.17898514	      3.18452336	     -4.90789844	     -3.10442651	     -0.89235518	     -8.75652376	      6.74298309	     -5.88943538	     -2.30222115	     11.85580401
      0.97350000	      3.17851145	      2.66859637	     -4.65830068	     -0.07331274	      1.00723680	      0.26964502	    -15.17875446	     -0.39760029	      1.41719324	    -19.84952648	     11.74554616	     -8.56507941	     12.14165332	     15.07723113	      3.36169003	     -4.63361343	     -3.63459904	     -1.19300368	     -8.97350712	      6.77999556	     -5.87110655	     -2.45868623	     11.80440113
      0.97766667	      3.24929508	      2.78761089	     -4.66830326	     -0.06716616	      1.00722215	      0.26927737	    -14.93925100	     -0.60095505	      1.22746326	    -21.14375699	     11.39617150	     -8.33429436	     12.31406895	     14.95473383	      3.55168557	     -4.40527570	     -4.18214953	     -1.48504080	     -9.16662588	      6.81664815	     -5.87290181	     -2.63961774	     11.74557886
